<svg width="35" height="35" viewBox="0 0 35 35" fill="none" xmlns="http://www.w3.org/2000/svg">
<path d="M29.3373 8.60547C29.2189 8.44829 29.0923 8.29739 28.9581 8.15338C29.0931 7.79382 29.1956 7.42289 29.2644 7.04505C29.4675 5.66284 29.2911 4.25139 28.754 2.96172C28.754 2.96172 27.1206 2.4513 23.3727 4.97422C21.7816 4.53488 20.138 4.3141 18.4873 4.31797C16.8319 4.31507 15.1836 4.53581 13.5873 4.97422C9.83939 2.42214 8.20605 2.96172 8.20605 2.96172C7.67534 4.23774 7.49899 5.63338 7.69564 7.0013C7.76484 7.39485 7.87229 7.78071 8.01647 8.15338C7.88522 8.29922 7.75397 8.45963 7.6373 8.60547C6.54907 9.9705 5.97141 11.6725 6.00397 13.418C6.00051 13.8319 6.01998 14.2457 6.0623 14.6575C6.52897 21.118 10.8311 22.62 14.929 23.0867C14.349 23.6261 13.9557 24.336 13.8061 25.1138C13.6705 25.6325 13.6067 26.1673 13.6165 26.7034V28.6138C11.9846 28.7596 10.3104 28.5219 9.79126 27.0665C9.23396 25.6735 8.3097 24.4574 7.11668 23.5475C7.02949 23.5003 6.94654 23.4457 6.86876 23.3842C6.764 23.1089 6.5784 22.8717 6.33633 22.7038C6.09427 22.5359 5.80709 22.4452 5.51251 22.4436H5.50522C5.11971 22.4436 4.74987 22.5962 4.47659 22.8681C4.20331 23.1401 4.04881 23.5091 4.04689 23.8946C4.04251 25.0788 5.22814 25.8444 5.71376 26.104C6.28113 26.6757 6.73753 27.3477 7.0598 28.0859C7.59064 29.5778 9.14376 31.8455 13.5727 31.5509L13.5756 31.6938L13.5815 32.0846C13.5815 32.4714 13.7351 32.8423 14.0086 33.1158C14.2821 33.3893 14.653 33.543 15.0398 33.543H21.9144C22.3012 33.543 22.6721 33.3893 22.9456 33.1158C23.2191 32.8423 23.3727 32.4714 23.3727 32.0846C23.3727 32.0846 23.3844 27.4763 23.3844 26.7034C23.3941 26.1673 23.3303 25.6325 23.1948 25.1138L23.1919 25.105L23.1977 25.1138C23.1846 25.0628 23.1656 25.0219 23.1511 24.9723C22.9886 24.2498 22.6126 23.5928 22.0719 23.0867L22.0894 23.1173L22.0602 23.0882C26.1581 22.6215 30.4311 21.0903 30.8977 14.659C30.94 14.2472 30.9595 13.8334 30.9561 13.4194C30.9819 11.6775 30.4107 9.97768 29.3373 8.60547Z" fill="url(#paint0_linear_912_31785)"/>
<defs>
<linearGradient id="paint0_linear_912_31785" x1="17.5019" y1="2.91406" x2="17.5019" y2="33.543" gradientUnits="userSpaceOnUse">
<stop stop-color="#6563FF"/>
<stop offset="1" stop-color="#F31111"/>
</linearGradient>
</defs>
</svg>
