<svg width="205" height="60" viewBox="0 0 205 60" fill="none" xmlns="http://www.w3.org/2000/svg">
<path d="M50.2886 14.7528C50.0855 14.4833 49.8686 14.2246 49.6386 13.9778C49.8699 13.3614 50.0456 12.7255 50.1636 12.0778C50.5119 9.70828 50.2094 7.28866 49.2886 5.07779C49.2886 5.07779 46.4886 4.20279 40.0636 8.52779C37.3359 7.77464 34.5184 7.39616 31.6886 7.40279C28.8507 7.39781 26.0252 7.77624 23.2886 8.52779C16.8636 4.15279 14.0636 5.07779 14.0636 5.07779C13.1538 7.26525 12.8515 9.65778 13.1886 12.0028C13.3072 12.6774 13.4914 13.3389 13.7386 13.9778C13.5136 14.2278 13.2886 14.5028 13.0886 14.7528C11.2231 17.0928 10.2328 20.0106 10.2886 23.0028C10.2827 23.7124 10.3161 24.4218 10.3886 25.1278C11.1886 36.2028 18.5636 38.7778 25.5886 39.5778C24.5943 40.5024 23.9201 41.7195 23.6636 43.0528C23.4312 43.942 23.3219 44.8588 23.3386 45.7778V49.0528C20.5411 49.3028 17.6711 48.8953 16.7811 46.4003C15.8257 44.0122 14.2413 41.9275 12.1961 40.3678C12.0466 40.2869 11.9044 40.1932 11.7711 40.0878C11.5915 39.6158 11.2733 39.2092 10.8584 38.9214C10.4434 38.6336 9.9511 38.4781 9.44611 38.4753H9.43361C8.77273 38.4753 8.13873 38.7369 7.67025 39.2031C7.20177 39.6692 6.93692 40.3019 6.93361 40.9628C6.92611 42.9928 8.95861 44.3053 9.79111 44.7503C10.7637 45.7303 11.5461 46.8823 12.0986 48.1478C13.0086 50.7053 15.6711 54.5928 23.2636 54.0878L23.2686 54.3328L23.2786 55.0028C23.2786 55.6658 23.542 56.3017 24.0108 56.7705C24.4797 57.2394 25.1156 57.5028 25.7786 57.5028H37.5636C38.2266 57.5028 38.8625 57.2394 39.3314 56.7705C39.8002 56.3017 40.0636 55.6658 40.0636 55.0028C40.0636 55.0028 40.0836 47.1028 40.0836 45.7778C40.1002 44.8589 39.9909 43.942 39.7586 43.0528L39.7536 43.0378L39.7636 43.0528C39.7411 42.9653 39.7086 42.8953 39.6836 42.8103C39.405 41.5716 38.7605 40.4454 37.8336 39.5778L37.8636 39.6303L37.8136 39.5803C44.8386 38.7803 52.1636 36.1553 52.9636 25.1303C53.0361 24.4243 53.0695 23.7149 53.0636 23.0053C53.108 20.0191 52.1287 17.1051 50.2886 14.7528Z" fill="url(#paint0_linear_1027_31795)"/>
<path d="M73.884 40.297C73.47 40.297 73.002 40.27 72.48 40.216C71.958 40.162 71.292 40.108 70.482 40.054C69.672 40.018 68.61 40 67.296 40C66.9 39.496 66.702 38.92 66.702 38.272C67.296 38.272 67.719 38.173 67.971 37.975C68.241 37.759 68.376 37.399 68.376 36.895V24.205C68.376 23.719 68.241 23.377 67.971 23.179C67.719 22.963 67.296 22.855 66.702 22.855C66.702 22.171 66.9 21.604 67.296 21.154C69.078 21.154 70.581 21.1 71.805 20.992C73.047 20.884 73.866 20.83 74.262 20.83C75.828 20.83 77.178 21.082 78.312 21.586C79.446 22.072 80.382 22.747 81.12 23.611C81.858 24.457 82.407 25.447 82.767 26.581C83.127 27.697 83.307 28.894 83.307 30.172C83.307 31.558 83.127 32.863 82.767 34.087C82.407 35.311 81.84 36.391 81.066 37.327C80.31 38.245 79.338 38.974 78.15 39.514C76.962 40.036 75.54 40.297 73.884 40.297ZM73.668 38.056C74.658 38.056 75.513 37.813 76.233 37.327C76.953 36.841 77.511 36.049 77.907 34.951C78.303 33.853 78.501 32.395 78.501 30.577C78.501 27.949 78.042 26.032 77.124 24.826C76.206 23.602 74.982 22.99 73.452 22.99C73.326 22.99 73.209 22.99 73.101 22.99C72.993 22.99 72.894 23.008 72.804 23.044V38.002C72.948 38.02 73.092 38.038 73.236 38.056C73.398 38.056 73.542 38.056 73.668 38.056ZM98.7295 40.432C98.6215 40.396 98.4865 40.351 98.3245 40.297C98.1625 40.243 97.9195 40.144 97.5955 40H85.0945C84.9145 39.766 84.7615 39.505 84.6355 39.217C84.5275 38.911 84.4735 38.605 84.4735 38.299C85.0675 38.299 85.5085 38.191 85.7965 37.975C86.1025 37.759 86.2555 37.399 86.2555 36.895V24.232C86.2555 23.728 86.1115 23.377 85.8235 23.179C85.5355 22.963 85.0945 22.855 84.5005 22.855C84.5005 22.549 84.5545 22.252 84.6625 21.964C84.7885 21.658 84.9415 21.388 85.1215 21.154H95.5975C95.9215 21.01 96.2815 20.902 96.6775 20.83C97.0735 20.74 97.4425 20.695 97.7845 20.695C97.9465 20.983 98.1265 21.406 98.3245 21.964C98.5405 22.504 98.7295 23.044 98.8915 23.584C99.0535 24.124 99.1345 24.547 99.1345 24.853C98.9905 24.997 98.7565 25.141 98.4325 25.285C98.1265 25.429 97.8115 25.555 97.4875 25.663C97.1635 25.771 96.8935 25.852 96.6775 25.906C96.4795 25.312 96.1285 24.754 95.6245 24.232C95.1385 23.71 94.5355 23.449 93.8155 23.449H90.7645V29.146H92.7085C93.2125 29.146 93.6265 29.002 93.9505 28.714C94.2925 28.408 94.4635 27.895 94.4635 27.175C95.2735 27.175 96.0025 27.364 96.6505 27.742V32.764C96.0385 33.142 95.3185 33.331 94.4905 33.331C94.4905 32.611 94.3195 32.089 93.9775 31.765C93.6535 31.441 93.2395 31.279 92.7355 31.279H90.7645V37.624H94.0315C94.8235 37.624 95.4895 37.3 96.0295 36.652C96.5875 35.986 96.9295 35.203 97.0555 34.303H99.9445C99.9445 34.573 99.8995 34.996 99.8095 35.572C99.7375 36.13 99.6385 36.742 99.5125 37.408C99.4045 38.056 99.2785 38.659 99.1345 39.217C98.9905 39.775 98.8555 40.18 98.7295 40.432ZM107.729 40.189L101.438 24.124C101.258 23.656 100.997 23.332 100.655 23.152C100.313 22.954 99.8273 22.855 99.1973 22.855C99.1973 22.531 99.2333 22.234 99.3053 21.964C99.3593 21.694 99.4673 21.424 99.6293 21.154H107.621C107.747 21.37 107.855 21.631 107.945 21.937C108.053 22.225 108.107 22.531 108.107 22.855C107.045 22.855 106.514 23.26 106.514 24.07C106.514 24.16 106.532 24.259 106.568 24.367C106.604 24.475 106.64 24.592 106.676 24.718L108.944 32.035L109.754 35.005L110.564 32.089L112.724 24.637C112.76 24.529 112.787 24.43 112.805 24.34C112.823 24.232 112.832 24.142 112.832 24.07C112.832 23.71 112.697 23.422 112.427 23.206C112.157 22.972 111.761 22.855 111.239 22.855C111.239 22.531 111.266 22.234 111.32 21.964C111.374 21.694 111.491 21.424 111.671 21.154H117.935C118.097 21.406 118.205 21.676 118.259 21.964C118.331 22.234 118.367 22.531 118.367 22.855C117.755 22.855 117.26 22.945 116.882 23.125C116.522 23.305 116.261 23.638 116.099 24.124L111.509 37.597C111.203 38.515 110.834 39.181 110.402 39.595C109.988 39.991 109.376 40.189 108.566 40.189H107.729ZM123.749 40C123.335 39.532 123.128 38.956 123.128 38.272C123.74 38.272 124.172 38.173 124.424 37.975C124.694 37.777 124.829 37.426 124.829 36.922V24.232C124.829 23.728 124.694 23.377 124.424 23.179C124.172 22.963 123.74 22.855 123.128 22.855C123.128 22.549 123.182 22.252 123.29 21.964C123.398 21.658 123.542 21.388 123.722 21.154C125.486 21.154 126.899 21.127 127.961 21.073C129.023 21.001 129.932 20.965 130.688 20.965C132.596 20.965 134.108 21.199 135.224 21.667C136.358 22.135 137.168 22.828 137.654 23.746C138.158 24.646 138.41 25.753 138.41 27.067C138.41 28.237 138.113 29.299 137.519 30.253C136.943 31.207 136.061 31.963 134.873 32.521C133.703 33.061 132.209 33.331 130.391 33.331H129.257V35.707C129.257 36.409 129.329 36.949 129.473 37.327C129.635 37.687 129.932 37.939 130.364 38.083C130.796 38.209 131.408 38.272 132.2 38.272C132.2 38.974 132.002 39.55 131.606 40H123.749ZM129.959 31.171C130.805 31.171 131.471 31.045 131.957 30.793C132.461 30.523 132.839 30.181 133.091 29.767C133.343 29.353 133.505 28.903 133.577 28.417C133.667 27.913 133.712 27.436 133.712 26.986C133.712 26.302 133.604 25.663 133.388 25.069C133.19 24.475 132.839 23.998 132.335 23.638C131.849 23.278 131.156 23.098 130.256 23.098C129.86 23.098 129.527 23.134 129.257 23.206V31.117C129.383 31.135 129.5 31.153 129.608 31.171C129.716 31.171 129.833 31.171 129.959 31.171ZM147.848 40.351C145.544 40.351 143.717 39.721 142.367 38.461C141.017 37.201 140.342 35.347 140.342 32.899V24.205C140.342 23.719 140.216 23.377 139.964 23.179C139.712 22.963 139.28 22.855 138.668 22.855C138.668 22.171 138.875 21.604 139.289 21.154H146.039C146.453 21.604 146.66 22.171 146.66 22.855C146.048 22.855 145.616 22.963 145.364 23.179C145.112 23.377 144.986 23.719 144.986 24.205V33.466C144.986 34.672 145.247 35.689 145.769 36.517C146.291 37.345 147.146 37.759 148.334 37.759C149.144 37.759 149.783 37.588 150.251 37.246C150.719 36.886 151.052 36.418 151.25 35.842C151.466 35.248 151.574 34.6 151.574 33.898V24.205C151.574 23.719 151.421 23.377 151.115 23.179C150.827 22.963 150.341 22.855 149.657 22.855C149.657 22.531 149.702 22.225 149.792 21.937C149.9 21.631 150.053 21.37 150.251 21.154H156.191C156.587 21.604 156.785 22.171 156.785 22.855C156.101 22.855 155.606 22.963 155.3 23.179C155.012 23.377 154.868 23.719 154.868 24.205V32.629C154.868 35.113 154.283 37.021 153.113 38.353C151.961 39.685 150.206 40.351 147.848 40.351ZM158.105 40C157.691 39.55 157.484 38.974 157.484 38.272C158.096 38.272 158.528 38.173 158.78 37.975C159.032 37.777 159.158 37.426 159.158 36.922V24.232C159.158 23.728 159.032 23.377 158.78 23.179C158.528 22.963 158.096 22.855 157.484 22.855C157.484 22.549 157.538 22.243 157.646 21.937C157.754 21.631 157.907 21.37 158.105 21.154H165.044C165.242 21.37 165.386 21.631 165.476 21.937C165.584 22.243 165.638 22.549 165.638 22.855C164.918 22.855 164.396 22.963 164.072 23.179C163.748 23.377 163.586 23.728 163.586 24.232V37.705H165.26C166.268 37.705 167.051 37.264 167.609 36.382C168.185 35.482 168.473 34.276 168.473 32.764H170.363C170.597 32.926 170.786 33.232 170.93 33.682C171.074 34.114 171.182 34.591 171.254 35.113C171.326 35.635 171.362 36.112 171.362 36.544C171.362 37.624 171.173 38.47 170.795 39.082C170.417 39.694 169.76 40 168.824 40H158.105ZM173.869 40.405C173.635 39.937 173.419 39.289 173.221 38.461C173.041 37.615 172.888 36.733 172.762 35.815C172.654 34.897 172.6 34.078 172.6 33.358H175.3C175.588 34.888 176.155 36.085 177.001 36.949C177.865 37.813 178.864 38.245 179.998 38.245C180.556 38.245 180.988 38.137 181.294 37.921C181.618 37.687 181.852 37.408 181.996 37.084C182.14 36.76 182.212 36.454 182.212 36.166C182.212 35.572 182.014 35.059 181.618 34.627C181.222 34.195 180.718 33.808 180.106 33.466C179.512 33.106 178.909 32.782 178.297 32.494C176.713 31.72 175.462 30.838 174.544 29.848C173.626 28.84 173.167 27.58 173.167 26.068C173.167 24.97 173.437 24.043 173.977 23.287C174.517 22.513 175.237 21.919 176.137 21.505C177.055 21.091 178.081 20.884 179.215 20.884C179.737 20.884 180.349 20.938 181.051 21.046C181.771 21.154 182.356 21.334 182.806 21.586L185.101 20.884C185.353 21.298 185.524 21.847 185.614 22.531C185.722 23.197 185.785 23.89 185.803 24.61C185.839 25.33 185.857 25.987 185.857 26.581V26.986H183.616C183.238 25.456 182.707 24.421 182.023 23.881C181.339 23.323 180.601 23.044 179.809 23.044C179.071 23.044 178.522 23.26 178.162 23.692C177.82 24.106 177.649 24.628 177.649 25.258C177.649 25.834 177.802 26.32 178.108 26.716C178.432 27.112 178.846 27.463 179.35 27.769C179.854 28.057 180.385 28.345 180.943 28.633C181.555 28.921 182.194 29.254 182.86 29.632C183.526 29.992 184.138 30.415 184.696 30.901C185.272 31.387 185.731 31.963 186.073 32.629C186.433 33.295 186.613 34.078 186.613 34.978C186.613 35.968 186.361 36.877 185.857 37.705C185.353 38.515 184.633 39.172 183.697 39.676C182.761 40.162 181.627 40.405 180.295 40.405C179.683 40.405 179.008 40.333 178.27 40.189C177.55 40.063 176.776 39.829 175.948 39.487L173.869 40.405ZM202.379 40.432C202.271 40.396 202.136 40.351 201.974 40.297C201.812 40.243 201.569 40.144 201.245 40H188.744C188.564 39.766 188.411 39.505 188.285 39.217C188.177 38.911 188.123 38.605 188.123 38.299C188.717 38.299 189.158 38.191 189.446 37.975C189.752 37.759 189.905 37.399 189.905 36.895V24.232C189.905 23.728 189.761 23.377 189.473 23.179C189.185 22.963 188.744 22.855 188.15 22.855C188.15 22.549 188.204 22.252 188.312 21.964C188.438 21.658 188.591 21.388 188.771 21.154H199.247C199.571 21.01 199.931 20.902 200.327 20.83C200.723 20.74 201.092 20.695 201.434 20.695C201.596 20.983 201.776 21.406 201.974 21.964C202.19 22.504 202.379 23.044 202.541 23.584C202.703 24.124 202.784 24.547 202.784 24.853C202.64 24.997 202.406 25.141 202.082 25.285C201.776 25.429 201.461 25.555 201.137 25.663C200.813 25.771 200.543 25.852 200.327 25.906C200.129 25.312 199.778 24.754 199.274 24.232C198.788 23.71 198.185 23.449 197.465 23.449H194.414V29.146H196.358C196.862 29.146 197.276 29.002 197.6 28.714C197.942 28.408 198.113 27.895 198.113 27.175C198.923 27.175 199.652 27.364 200.3 27.742V32.764C199.688 33.142 198.968 33.331 198.14 33.331C198.14 32.611 197.969 32.089 197.627 31.765C197.303 31.441 196.889 31.279 196.385 31.279H194.414V37.624H197.681C198.473 37.624 199.139 37.3 199.679 36.652C200.237 35.986 200.579 35.203 200.705 34.303H203.594C203.594 34.573 203.549 34.996 203.459 35.572C203.387 36.13 203.288 36.742 203.162 37.408C203.054 38.056 202.928 38.659 202.784 39.217C202.64 39.775 202.505 40.18 202.379 40.432Z" fill="white"/>
<defs>
<linearGradient id="paint0_linear_1027_31795" x1="29.9993" y1="4.99609" x2="29.9993" y2="57.5028" gradientUnits="userSpaceOnUse">
<stop stop-color="#6563FF"/>
<stop offset="1" stop-color="#F31111"/>
</linearGradient>
</defs>
</svg>
